<?xml version="1.0" encoding="UTF-8"?>
<!DOCTYPE svg PUBLIC "-//W3C//DTD SVG 1.1//EN" "http://www.w3.org/Graphics/SVG/1.1/DTD/svg11.dtd">
<svg xmlns="http://www.w3.org/2000/svg" version="1.1" width="512px" height="512px" style="shape-rendering:geometricPrecision; text-rendering:geometricPrecision; image-rendering:optimizeQuality; fill-rule:evenodd; clip-rule:evenodd" xmlns:xlink="http://www.w3.org/1999/xlink">
<g><path style="opacity:0.941" fill="#030102" d="M 219.5,-0.5 C 228.167,-0.5 236.833,-0.5 245.5,-0.5C 250.423,0.820036 255.423,2.32004 260.5,4C 278.944,15.4891 299.111,21.3225 321,21.5C 329.516,20.8193 338.016,19.986 346.5,19C 357.189,16.8266 367.856,14.6599 378.5,12.5C 402.702,15.8586 419.535,28.8586 429,51.5C 432.876,74.7943 440.543,96.7943 452,117.5C 460.587,132.345 469.92,146.679 480,160.5C 485.457,180.745 485.791,201.078 481,221.5C 473.015,247.087 466.682,273.087 462,299.5C 460.066,306.637 457.732,313.637 455,320.5C 454.213,327.155 453.547,333.821 453,340.5C 437.333,361.5 421.667,382.5 406,403.5C 397.588,419.992 388.921,436.325 380,452.5C 366.121,475.217 346.288,490.384 320.5,498C 304.75,504.093 288.75,508.593 272.5,511.5C 251.167,511.5 229.833,511.5 208.5,511.5C 187.628,510.015 167.295,505.515 147.5,498C 114.593,482.075 93.7596,456.242 85,420.5C 79.0455,397.532 75.3788,374.199 74,350.5C 25.8959,296.64 14.2293,235.64 39,167.5C 46.9917,149.67 57.825,133.837 71.5,120C 80.1285,120.601 88.7952,121.101 97.5,121.5C 115.024,122.155 131.024,117.655 145.5,108C 154.451,97.5818 153.118,88.5818 141.5,81C 134.784,77.4352 127.951,74.2686 121,71.5C 120.333,69.5 120.333,67.5 121,65.5C 140.739,41.0797 164.572,21.913 192.5,8C 201.393,4.4223 210.393,1.58897 219.5,-0.5 Z"/></g>
<g><path style="opacity:1" fill="#fe7e61" d="M 222.5,8.5 C 232.3,7.97276 241.966,8.80609 251.5,11C 260.316,15.5738 269.316,19.9071 278.5,24C 296.727,29.9447 315.393,31.9447 334.5,30C 349.389,28.2555 364.056,25.4221 378.5,21.5C 403.005,26.8369 418.171,41.8369 424,66.5C 425.159,78.3125 428.159,89.6458 433,100.5C 443.306,122.458 455.64,143.124 470,162.5C 472.346,167.555 473.679,172.889 474,178.5C 474.957,191.586 474.29,204.586 472,217.5C 468.538,230.886 464.871,244.219 461,257.5C 457.851,278.764 452.518,299.431 445,319.5C 444.667,325.167 444.333,330.833 444,336.5C 428.667,357.167 413.333,377.833 398,398.5C 387.853,420.139 376.186,440.806 363,460.5C 354.521,470.315 344.355,477.815 332.5,483C 315.727,489.591 298.727,495.591 281.5,501C 257.847,502.367 234.18,502.7 210.5,502C 200.092,501.241 189.759,499.907 179.5,498C 171.057,496.519 163.057,493.852 155.5,490C 172.031,471.08 174.864,450.247 164,427.5C 147.535,404.123 125.702,396.956 98.5,406C 96.3359,406.914 94.3359,408.081 92.5,409.5C 90.3014,403.342 88.8014,397.009 88,390.5C 85.9378,375.878 84.2712,361.212 83,346.5C 58.902,319.97 43.5687,288.97 37,253.5C 31.8359,211.818 41.5025,174.151 66,140.5C 68.7969,136.701 71.9636,133.201 75.5,130C 96.2951,133.026 116.628,131.026 136.5,124C 147.104,120.29 154.937,113.457 160,103.5C 162.883,91.7469 159.383,82.2469 149.5,75C 144.458,71.4793 139.125,68.4793 133.5,66C 152.341,44.4127 174.674,27.4127 200.5,15C 207.807,12.2817 215.141,10.115 222.5,8.5 Z"/></g>
<g><path style="opacity:1" fill="#060303" d="M 312.5,68.5 C 328.845,66.4901 338.512,73.4901 341.5,89.5C 341.352,99.3101 337.019,106.477 328.5,111C 316.168,115.222 306.335,112.055 299,101.5C 293.478,86.2055 297.978,75.2055 312.5,68.5 Z"/></g>
<g><path style="opacity:1" fill="#060303" d="M 240.5,73.5 C 258.319,71.8188 269.819,79.4854 275,96.5C 275.978,114.192 267.812,125.026 250.5,129C 228.348,128.178 218.182,116.678 220,94.5C 223.043,83.6256 229.876,76.6256 240.5,73.5 Z"/></g>
<g><path style="opacity:0.998" fill="#a8705f" d="M 315.5,76.5 C 330.153,77.4877 334.987,84.8211 330,98.5C 320.844,107.198 312.844,106.198 306,95.5C 305.333,92.1667 305.333,88.8333 306,85.5C 308.406,81.5915 311.572,78.5915 315.5,76.5 Z"/></g>
<g><path style="opacity:0.999" fill="#a8705f" d="M 244.5,81.5 C 260.004,82.1658 267.171,90.1658 266,105.5C 260.66,119.086 251.16,123.252 237.5,118C 228.126,110.668 225.959,101.501 231,90.5C 234.528,85.8341 239.028,82.8341 244.5,81.5 Z"/></g>
<g><path style="opacity:1" fill="#050203" d="M 313.5,126.5 C 343.988,124.852 365.488,137.852 378,165.5C 387.188,196.947 378.354,221.78 351.5,240C 319.067,254.851 291.901,248.351 270,220.5C 253.802,190.397 257.969,163.564 282.5,140C 291.949,133.271 302.283,128.771 313.5,126.5 Z"/></g>
<g><path style="opacity:1" fill="#aa7160" d="M 311.5,135.5 C 335.693,133.182 354.193,142.182 367,162.5C 378.634,189.798 372.801,212.631 349.5,231C 323.974,244.827 301.14,241.327 281,220.5C 268.965,204.323 266.299,186.657 273,167.5C 280.889,150.769 293.722,140.102 311.5,135.5 Z"/></g>
<g><path style="opacity:1" fill="#060303" d="M 410.5,136.5 C 428.824,135.658 437.658,144.325 437,162.5C 433.39,175.441 424.89,181.274 411.5,180C 398.532,175.902 392.699,167.069 394,153.5C 396.684,144.984 402.184,139.317 410.5,136.5 Z"/></g>
<g><path style="opacity:0.998" fill="#a8705f" d="M 411.5,145.5 C 423.649,144.815 429.149,150.482 428,162.5C 422.802,171.898 415.636,173.731 406.5,168C 400.004,158.609 401.671,151.109 411.5,145.5 Z"/></g>
<g><path style="opacity:1" fill="#080404" d="M 144.5,171.5 C 158.473,171.296 164.306,177.962 162,191.5C 158.167,199.122 152.001,201.955 143.5,200C 135.321,195.81 132.487,189.31 135,180.5C 137.256,176.47 140.422,173.47 144.5,171.5 Z"/></g>
<g><path style="opacity:0.996" fill="#a66f5e" d="M 145.5,180.5 C 151.83,179.666 154.663,182.333 154,188.5C 150.333,192.5 146.667,192.5 143,188.5C 142.388,185.389 143.221,182.723 145.5,180.5 Z"/></g>
<g><path style="opacity:1" fill="#050203" d="M 92.5,207.5 C 102.604,207.136 109.104,211.803 112,221.5C 114.499,232.994 110.666,241.494 100.5,247C 88.8421,248.354 82.0088,243.187 80,231.5C 78.6743,220.48 82.841,212.48 92.5,207.5 Z"/></g>
<g><path style="opacity:0.998" fill="#a8705f" d="M 93.5,216.5 C 98.0479,216.199 101.215,218.199 103,222.5C 104.164,227.726 103.331,232.559 100.5,237C 95.005,239.831 91.1717,238.331 89,232.5C 87.4447,226.207 88.9447,220.874 93.5,216.5 Z"/></g>
<g><path style="opacity:1" fill="#080404" d="M 130.5,244.5 C 144.781,242.271 152.448,248.438 153.5,263C 151.276,277.724 142.942,286.891 128.5,290.5C 121.521,289.685 117.688,285.685 117,278.5C 115.917,270.24 116.917,262.24 120,254.5C 122.738,250.26 126.238,246.926 130.5,244.5 Z"/></g>
<g><path style="opacity:0.999" fill="#a76f5f" d="M 132.5,253.5 C 135.518,253.335 138.518,253.502 141.5,254C 146.734,267.043 142.734,276.21 129.5,281.5C 127.222,281.219 126.055,279.885 126,277.5C 124.86,270.167 125.86,263.167 129,256.5C 130.145,255.364 131.312,254.364 132.5,253.5 Z"/></g>
<g><path style="opacity:1" fill="#050303" d="M 249.5,266.5 C 264.191,263.525 271.858,269.525 272.5,284.5C 271.995,295.331 266.995,303.498 257.5,309C 246.649,315.655 239.816,312.821 237,300.5C 235.441,290.515 237.108,281.182 242,272.5C 244.114,269.879 246.614,267.879 249.5,266.5 Z"/></g>
<g><path style="opacity:0.999" fill="#a8705f" d="M 251.5,275.5 C 254.898,275.18 258.232,275.513 261.5,276.5C 266.076,289.683 261.743,298.683 248.5,303.5C 247.353,303.182 246.519,302.516 246,301.5C 245.333,295.833 245.333,290.167 246,284.5C 246.872,280.819 248.706,277.819 251.5,275.5 Z"/></g>
<g><path style="opacity:1" fill="#060303" d="M 373.5,320.5 C 379.176,320.334 384.843,320.501 390.5,321C 401.889,337.585 399.223,351.585 382.5,363C 371.897,369.113 365.064,366.279 362,354.5C 360.647,345.073 361.981,336.073 366,327.5C 368.396,324.933 370.896,322.6 373.5,320.5 Z"/></g>
<g><path style="opacity:0.999" fill="#a76f5e" d="M 375.5,329.5 C 379.182,329.335 382.848,329.501 386.5,330C 390.674,336.809 390.174,343.309 385,349.5C 381.581,352.751 377.747,355.418 373.5,357.5C 372.201,356.91 371.368,355.91 371,354.5C 369.239,345.455 370.739,337.122 375.5,329.5 Z"/></g>
<g><path style="opacity:1" fill="#060303" d="M 209.5,359.5 C 226.026,357.882 236.859,364.882 242,380.5C 242.848,402.319 232.348,412.819 210.5,412C 195.256,407.018 188.422,396.518 190,380.5C 192.923,370.08 199.423,363.08 209.5,359.5 Z"/></g>
<g><path style="opacity:0.999" fill="#a97060" d="M 210.5,368.5 C 228.416,367.687 235.582,376.02 232,393.5C 226.459,402.515 218.625,405.348 208.5,402C 197.9,394.895 195.733,385.729 202,374.5C 204.637,372.109 207.47,370.109 210.5,368.5 Z"/></g>
<g><path style="opacity:1" fill="#aa7160" d="M 112.5,410.5 C 134.333,408.875 149.833,417.875 159,437.5C 165.122,456.684 160.788,473.018 146,486.5C 119.084,471.528 101.917,449.028 94.5,419C 99.9461,414.775 105.946,411.941 112.5,410.5 Z"/></g>
<g><path style="opacity:1" fill="#060303" d="M 268.5,419.5 C 295.464,419.291 305.964,432.291 300,458.5C 291.29,472.394 279.123,476.561 263.5,471C 247.9,460.771 244.4,447.271 253,430.5C 257.127,425.202 262.294,421.535 268.5,419.5 Z"/></g>
<g><path style="opacity:0.999" fill="#a97060" d="M 269.5,428.5 C 288.421,427.359 295.921,436.026 292,454.5C 286.875,463.102 279.375,466.269 269.5,464C 258.081,458.325 254.581,449.492 259,437.5C 261.505,433.189 265.005,430.189 269.5,428.5 Z"/></g>
</svg>
